<svg xmlns="http://www.w3.org/2000/svg" width="32" height="32" viewBox="0 0 24 24"><path fill="#2F3B50" d="M7 2C4.2 2 2 4.2 2 7v10c0 2.8 2.2 5 5 5h10c2.8 0 5-2.2 5-5V7c0-2.8-2.2-5-5-5H7zm0 2h10c1.7 0 3 1.3 3 3v10c0 1.7-1.3 3-3 3H7c-1.7 0-3-1.3-3-3V7c0-1.7 1.3-3 3-3zm5 2.8A5.2 5.2 0 0 0 6.8 12 5.2 5.2 0 0 0 12 17.2 5.2 5.2 0 0 0 17.2 12 5.2 5.2 0 0 0 12 6.8zm0 2A3.2 3.2 0 0 1 15.2 12 3.2 3.2 0 0 1 12 15.2 3.2 3.2 0 0 1 8.8 12 3.2 3.2 0 0 1 12 8.8zm4.8-.9a1.1 1.1 0 1 0 0-2.2 1.1 1.1 0 0 0 0 2.2z"></path></svg>
