<svg xmlns="http://www.w3.org/2000/svg" width="32" height="32" viewBox="0 0 24 24">
<path fill="#25D366" d="M12 2C6.5 2 2 6.4 2 11.8c0 2.2.8 4.2 2.1 5.9L2 22l4.5-1.9c1.6.9 3.4 1.4 5.5 1.4 5.5 0 10-4.4 10-9.8S17.5 2 12 2z"></path>
<path fill="#fff" d="M17.6 15.3c-.3.8-1.6 1.5-2.2 1.6-.6.1-1.4.2-2.3-.1-.5-.2-1.2-.3-2.1-.8-.9-.5-1.4-1.1-1.6-1.3-.2-.2-.7-.8-.7-1.5 0-.8.4-1.3.6-1.5.3-.4.6-.4.8-.4h.6c.2 0 .4 0 .5.4.2.5.6 1.7.7 1.8.1.1.1.2 0 .4-.2.4-.4.6-.5.7-.1.1-.2.2-.1.3.1.1.4.7 1 1.1.7.5 1.2.7 1.4.8.1 0 .3 0 .4-.2.1-.2.5-.6.6-.8.1-.2.3-.2.5-.1.2.1 1.4.7 1.6.8.2.1.3.2.3.3-.1.2-.1.6-.4 1.2z"></path>
</svg>
